<mxfile host="65bd71144e">
    <diagram id="q4ouYCMT1bPEZWRJ1mMY" name="Page-1">
        <mxGraphModel dx="1610" dy="951" grid="0" gridSize="10" guides="1" tooltips="1" connect="1" arrows="1" fold="1" page="0" pageScale="1" pageWidth="827" pageHeight="1169" background="#ffffff" math="0" shadow="0">
            <root>
                <mxCell id="0"/>
                <mxCell id="1" parent="0"/>
                <mxCell id="32" style="edgeStyle=none;html=1;exitX=0.008;exitY=0.569;exitDx=0;exitDy=0;entryX=1;entryY=0.5;entryDx=0;entryDy=0;labelBackgroundColor=#000000;labelBorderColor=#000000;fontSize=14;fontColor=#000000;strokeColor=#000000;exitPerimeter=0;rounded=0;fontFamily=Times New Roman;" parent="1" edge="1">
                    <mxGeometry relative="1" as="geometry">
                        <mxPoint x="211.04000000000008" y="-4.170000000000073" as="sourcePoint"/>
                        <mxPoint x="50" y="-4" as="targetPoint"/>
                    </mxGeometry>
                </mxCell>
                <mxCell id="3" value="Login&lt;br style=&quot;font-size: 14px;&quot;&gt;1.0" style="shape=ellipse;html=1;dashed=0;whitespace=wrap;perimeter=ellipsePerimeter;labelBackgroundColor=#FFFFFF;fontSize=14;fontColor=#000000;strokeColor=#000000;fillColor=#FFFFFF;fontStyle=1;fontFamily=Times New Roman;" parent="1" vertex="1">
                    <mxGeometry x="210" y="-50" width="130" height="70" as="geometry"/>
                </mxCell>
                <mxCell id="37" style="edgeStyle=elbowEdgeStyle;html=1;exitX=0.018;exitY=0.64;exitDx=0;exitDy=0;labelBackgroundColor=#000000;labelBorderColor=#000000;fontSize=14;fontColor=#000000;strokeColor=#000000;exitPerimeter=0;startArrow=none;rounded=0;fontFamily=Times New Roman;entryX=0.954;entryY=1.021;entryDx=0;entryDy=0;entryPerimeter=0;" parent="1" source="21" target="26" edge="1">
                    <mxGeometry relative="1" as="geometry">
                        <mxPoint x="211.03999999999996" y="84.78999999999996" as="sourcePoint"/>
                        <mxPoint x="32" y="10" as="targetPoint"/>
                        <Array as="points">
                            <mxPoint x="32" y="66"/>
                        </Array>
                    </mxGeometry>
                </mxCell>
                <mxCell id="40" style="edgeStyle=elbowEdgeStyle;html=1;labelBackgroundColor=#000000;labelBorderColor=#000000;fontSize=14;fontColor=#000000;strokeColor=#000000;exitX=0.005;exitY=0.449;exitDx=0;exitDy=0;exitPerimeter=0;rounded=0;fontFamily=Times New Roman;entryX=0.829;entryY=0.994;entryDx=0;entryDy=0;entryPerimeter=0;" parent="1" target="26" edge="1">
                    <mxGeometry relative="1" as="geometry">
                        <mxPoint x="209.6500000000001" y="168.43000000000006" as="sourcePoint"/>
                        <mxPoint x="-14" y="13" as="targetPoint"/>
                        <Array as="points">
                            <mxPoint x="-14" y="94"/>
                        </Array>
                    </mxGeometry>
                </mxCell>
                <mxCell id="22" value="Manage&lt;br style=&quot;font-size: 14px;&quot;&gt;Product&lt;br style=&quot;font-size: 14px;&quot;&gt;3.0" style="shape=ellipse;html=1;dashed=0;whitespace=wrap;perimeter=ellipsePerimeter;labelBackgroundColor=#FFFFFF;fontSize=14;fontColor=#000000;strokeColor=#000000;fillColor=#FFFFFF;fontStyle=1;fontFamily=Times New Roman;" parent="1" vertex="1">
                    <mxGeometry x="210" y="130" width="130" height="70" as="geometry"/>
                </mxCell>
                <mxCell id="45" style="edgeStyle=elbowEdgeStyle;html=1;labelBackgroundColor=#000000;labelBorderColor=#000000;fontSize=14;fontColor=#000000;strokeColor=#000000;exitX=0.015;exitY=0.631;exitDx=0;exitDy=0;rounded=0;fontFamily=Times New Roman;exitPerimeter=0;entryX=0.681;entryY=1.009;entryDx=0;entryDy=0;entryPerimeter=0;" parent="1" source="24" target="26" edge="1">
                    <mxGeometry relative="1" as="geometry">
                        <mxPoint x="209.99999999999773" y="356" as="sourcePoint"/>
                        <mxPoint x="-78" y="10" as="targetPoint"/>
                        <Array as="points">
                            <mxPoint x="-69" y="196"/>
                            <mxPoint x="-78" y="178"/>
                        </Array>
                    </mxGeometry>
                </mxCell>
                <mxCell id="24" value="Manage&lt;br style=&quot;font-size: 14px&quot;&gt;Payment&lt;br style=&quot;font-size: 14px&quot;&gt;4.0" style="shape=ellipse;html=1;dashed=0;whitespace=wrap;perimeter=ellipsePerimeter;labelBackgroundColor=#FFFFFF;fontSize=14;fontColor=#000000;strokeColor=#000000;fillColor=#FFFFFF;fontStyle=1;fontFamily=Times New Roman;" parent="1" vertex="1">
                    <mxGeometry x="210" y="229" width="130" height="70" as="geometry"/>
                </mxCell>
                <mxCell id="48" style="edgeStyle=elbowEdgeStyle;html=1;exitX=0.026;exitY=0.726;exitDx=0;exitDy=0;labelBackgroundColor=#000000;labelBorderColor=#000000;fontSize=14;fontColor=#000000;strokeColor=#000000;exitPerimeter=0;rounded=0;fontFamily=Times New Roman;entryX=0.531;entryY=0.996;entryDx=0;entryDy=0;entryPerimeter=0;" parent="1" source="25" target="26" edge="1">
                    <mxGeometry relative="1" as="geometry">
                        <mxPoint x="217.43000000000006" y="447.29999999999995" as="sourcePoint"/>
                        <mxPoint x="-159" y="10" as="targetPoint"/>
                        <Array as="points">
                            <mxPoint x="-123" y="177"/>
                            <mxPoint x="-123" y="141"/>
                            <mxPoint x="-150" y="138"/>
                            <mxPoint x="-159" y="378"/>
                        </Array>
                    </mxGeometry>
                </mxCell>
                <mxCell id="25" value="Manage&lt;br style=&quot;font-size: 14px&quot;&gt;Shipping&lt;br style=&quot;font-size: 14px&quot;&gt;5.0" style="shape=ellipse;html=1;dashed=0;whitespace=wrap;perimeter=ellipsePerimeter;labelBackgroundColor=#FFFFFF;fontSize=14;fontColor=#000000;strokeColor=#000000;fillColor=#FFFFFF;fontStyle=1;fontFamily=Times New Roman;" parent="1" vertex="1">
                    <mxGeometry x="210" y="329" width="130" height="70" as="geometry"/>
                </mxCell>
                <mxCell id="31" style="edgeStyle=none;html=1;exitX=1.001;exitY=0.335;exitDx=0;exitDy=0;labelBackgroundColor=#000000;labelBorderColor=#000000;fontSize=14;fontColor=#000000;strokeColor=#000000;exitPerimeter=0;entryX=0.013;entryY=0.357;entryDx=0;entryDy=0;entryPerimeter=0;fontFamily=Times New Roman;" parent="1" source="26" edge="1">
                    <mxGeometry relative="1" as="geometry">
                        <mxPoint x="50.860000000000014" y="-23.25" as="sourcePoint"/>
                        <mxPoint x="211.69000000000005" y="-23.00999999999999" as="targetPoint"/>
                    </mxGeometry>
                </mxCell>
                <mxCell id="35" style="edgeStyle=elbowEdgeStyle;html=1;exitX=0.928;exitY=0.989;exitDx=0;exitDy=0;labelBackgroundColor=#000000;labelBorderColor=#000000;fontSize=14;fontColor=#000000;strokeColor=#000000;exitPerimeter=0;rounded=0;entryX=0.008;entryY=0.366;entryDx=0;entryDy=0;entryPerimeter=0;fontFamily=Times New Roman;" parent="1" edge="1">
                    <mxGeometry relative="1" as="geometry">
                        <mxPoint x="42.200000000000045" y="2.4500000000000455" as="sourcePoint"/>
                        <mxPoint x="211.03999999999996" y="68.62" as="targetPoint"/>
                        <Array as="points">
                            <mxPoint x="43" y="53"/>
                        </Array>
                    </mxGeometry>
                </mxCell>
                <mxCell id="41" style="edgeStyle=elbowEdgeStyle;html=1;labelBackgroundColor=#000000;labelBorderColor=#000000;fontSize=14;fontColor=#000000;strokeColor=#000000;rounded=0;fontFamily=Times New Roman;entryX=0.029;entryY=0.33;entryDx=0;entryDy=0;entryPerimeter=0;" parent="1" source="26" target="22" edge="1">
                    <mxGeometry relative="1" as="geometry">
                        <mxPoint x="-1" y="12" as="sourcePoint"/>
                        <mxPoint x="209" y="153" as="targetPoint"/>
                        <Array as="points">
                            <mxPoint x="-1" y="102"/>
                        </Array>
                    </mxGeometry>
                </mxCell>
                <mxCell id="44" style="edgeStyle=elbowEdgeStyle;html=1;labelBackgroundColor=#000000;labelBorderColor=#000000;fontSize=14;fontColor=#000000;strokeColor=#000000;rounded=0;fontFamily=Times New Roman;entryX=0.019;entryY=0.357;entryDx=0;entryDy=0;entryPerimeter=0;" parent="1" source="26" target="24" edge="1">
                    <mxGeometry relative="1" as="geometry">
                        <mxPoint x="-52" y="11" as="sourcePoint"/>
                        <mxPoint x="208" y="335" as="targetPoint"/>
                        <Array as="points">
                            <mxPoint x="-52" y="177"/>
                            <mxPoint x="-95" y="190"/>
                        </Array>
                    </mxGeometry>
                </mxCell>
                <mxCell id="46" style="edgeStyle=elbowEdgeStyle;html=1;exitX=0.59;exitY=0.996;exitDx=0;exitDy=0;labelBackgroundColor=#000000;labelBorderColor=#000000;fontSize=14;fontColor=#000000;strokeColor=#000000;exitPerimeter=0;rounded=0;entryX=0;entryY=0.439;entryDx=0;entryDy=0;entryPerimeter=0;fontFamily=Times New Roman;" parent="1" source="26" target="25" edge="1">
                    <mxGeometry relative="1" as="geometry">
                        <mxPoint x="-144.0999999999999" y="2" as="sourcePoint"/>
                        <mxPoint x="210" y="427" as="targetPoint"/>
                        <Array as="points">
                            <mxPoint x="-102" y="129"/>
                            <mxPoint x="-144" y="42"/>
                            <mxPoint x="-144" y="112"/>
                        </Array>
                    </mxGeometry>
                </mxCell>
                <mxCell id="108" style="edgeStyle=elbowEdgeStyle;rounded=0;html=1;entryX=0.016;entryY=0.362;entryDx=0;entryDy=0;fontSize=14;strokeColor=#000000;fontFamily=Times New Roman;entryPerimeter=0;exitX=0.434;exitY=1.003;exitDx=0;exitDy=0;exitPerimeter=0;" parent="1" source="26" target="107" edge="1">
                    <mxGeometry relative="1" as="geometry">
                        <mxPoint x="-174" y="11" as="sourcePoint"/>
                        <mxPoint x="207.00000000000364" y="613" as="targetPoint"/>
                        <Array as="points">
                            <mxPoint x="-160" y="115"/>
                            <mxPoint x="-174" y="70"/>
                            <mxPoint x="-248" y="318"/>
                        </Array>
                    </mxGeometry>
                </mxCell>
                <mxCell id="117" style="edgeStyle=elbowEdgeStyle;rounded=0;html=1;exitX=0.28;exitY=1.006;exitDx=0;exitDy=0;entryX=0.024;entryY=0.354;entryDx=0;entryDy=0;fontSize=14;strokeColor=#000000;fontFamily=Times New Roman;entryPerimeter=0;exitPerimeter=0;" parent="1" source="26" target="116" edge="1">
                    <mxGeometry relative="1" as="geometry">
                        <mxPoint x="-376" y="-6" as="sourcePoint"/>
                        <mxPoint x="203.99999999999727" y="729" as="targetPoint"/>
                        <Array as="points">
                            <mxPoint x="-217" y="288"/>
                        </Array>
                    </mxGeometry>
                </mxCell>
                <mxCell id="139" style="edgeStyle=none;html=1;exitX=0.123;exitY=1.041;exitDx=0;exitDy=0;entryX=0.007;entryY=0.395;entryDx=0;entryDy=0;exitPerimeter=0;rounded=0;strokeColor=#000000;entryPerimeter=0;" parent="1" target="138" edge="1">
                    <mxGeometry relative="1" as="geometry">
                        <mxPoint x="-288.36699999999996" y="3.0499999999999545" as="sourcePoint"/>
                        <mxPoint x="200" y="697" as="targetPoint"/>
                        <Array as="points">
                            <mxPoint x="-288" y="697"/>
                        </Array>
                    </mxGeometry>
                </mxCell>
                <mxCell id="26" value="&lt;font color=&quot;#000000&quot; style=&quot;font-size: 14px;&quot;&gt;&lt;b style=&quot;font-size: 14px;&quot;&gt;ADMIN&lt;/b&gt;&lt;/font&gt;" style="html=1;dashed=0;whitespace=wrap;fillColor=#FFFFFF;strokeColor=#000000;fontFamily=Times New Roman;fontSize=14;" parent="1" vertex="1">
                    <mxGeometry x="-321" y="-40" width="371" height="50" as="geometry"/>
                </mxCell>
                <mxCell id="21" value="Manage&lt;br style=&quot;font-size: 14px;&quot;&gt;Category&lt;br style=&quot;font-size: 14px;&quot;&gt;2.0" style="shape=ellipse;html=1;dashed=0;whitespace=wrap;perimeter=ellipsePerimeter;labelBackgroundColor=#FFFFFF;fontSize=14;fontColor=#000000;strokeColor=#000000;fillColor=#FFFFFF;fontStyle=1;fontFamily=Times New Roman;" parent="1" vertex="1">
                    <mxGeometry x="210" y="40" width="130" height="70" as="geometry"/>
                </mxCell>
                <mxCell id="51" value="" style="endArrow=classic;html=1;rounded=0;labelBackgroundColor=#000000;labelBorderColor=#000000;fontSize=14;fontColor=#000000;strokeColor=#000000;fontFamily=Times New Roman;exitX=0.988;exitY=0.4;exitDx=0;exitDy=0;exitPerimeter=0;entryX=-0.003;entryY=0.294;entryDx=0;entryDy=0;entryPerimeter=0;" parent="1" source="3" target="63" edge="1">
                    <mxGeometry width="50" height="50" relative="1" as="geometry">
                        <mxPoint x="342" y="-22" as="sourcePoint"/>
                        <mxPoint x="502" y="-22" as="targetPoint"/>
                    </mxGeometry>
                </mxCell>
                <mxCell id="52" value="" style="endArrow=classic;html=1;rounded=0;labelBackgroundColor=#000000;labelBorderColor=#000000;fontSize=14;fontColor=#000000;strokeColor=#000000;fontFamily=Times New Roman;entryX=0.983;entryY=0.642;entryDx=0;entryDy=0;entryPerimeter=0;exitX=0.003;exitY=0.796;exitDx=0;exitDy=0;exitPerimeter=0;" parent="1" source="63" target="3" edge="1">
                    <mxGeometry width="50" height="50" relative="1" as="geometry">
                        <mxPoint x="499" y="-5" as="sourcePoint"/>
                        <mxPoint x="339" y="-5" as="targetPoint"/>
                    </mxGeometry>
                </mxCell>
                <mxCell id="53" value="" style="endArrow=classic;html=1;rounded=0;labelBackgroundColor=#000000;labelBorderColor=#000000;fontSize=14;fontColor=#000000;strokeColor=#000000;fontFamily=Times New Roman;entryX=-0.002;entryY=0.276;entryDx=0;entryDy=0;entryPerimeter=0;" parent="1" target="64" edge="1">
                    <mxGeometry width="50" height="50" relative="1" as="geometry">
                        <mxPoint x="340" y="67.5" as="sourcePoint"/>
                        <mxPoint x="500" y="67.5" as="targetPoint"/>
                    </mxGeometry>
                </mxCell>
                <mxCell id="54" value="" style="endArrow=classic;html=1;rounded=0;labelBackgroundColor=#000000;labelBorderColor=#000000;fontSize=14;fontColor=#000000;strokeColor=#000000;fontFamily=Times New Roman;exitX=0.005;exitY=0.742;exitDx=0;exitDy=0;exitPerimeter=0;" parent="1" source="64" edge="1">
                    <mxGeometry width="50" height="50" relative="1" as="geometry">
                        <mxPoint x="498" y="83.5" as="sourcePoint"/>
                        <mxPoint x="338" y="83.5" as="targetPoint"/>
                    </mxGeometry>
                </mxCell>
                <mxCell id="59" value="" style="endArrow=classic;html=1;rounded=0;labelBackgroundColor=#000000;labelBorderColor=#000000;fontSize=14;fontColor=#000000;strokeColor=#000000;fontFamily=Times New Roman;exitX=0.974;exitY=0.337;exitDx=0;exitDy=0;exitPerimeter=0;entryX=-0.005;entryY=0.221;entryDx=0;entryDy=0;entryPerimeter=0;" parent="1" source="24" target="67" edge="1">
                    <mxGeometry width="50" height="50" relative="1" as="geometry">
                        <mxPoint x="340" y="333.5" as="sourcePoint"/>
                        <mxPoint x="500" y="333.5" as="targetPoint"/>
                    </mxGeometry>
                </mxCell>
                <mxCell id="60" value="" style="endArrow=classic;html=1;rounded=0;labelBackgroundColor=#000000;labelBorderColor=#000000;fontSize=14;fontColor=#000000;strokeColor=#000000;fontFamily=Times New Roman;entryX=0.991;entryY=0.606;entryDx=0;entryDy=0;entryPerimeter=0;exitX=0;exitY=0.75;exitDx=0;exitDy=0;" parent="1" source="67" target="24" edge="1">
                    <mxGeometry width="50" height="50" relative="1" as="geometry">
                        <mxPoint x="500" y="352.5" as="sourcePoint"/>
                        <mxPoint x="340" y="352.5" as="targetPoint"/>
                    </mxGeometry>
                </mxCell>
                <mxCell id="61" value="" style="endArrow=classic;html=1;rounded=0;labelBackgroundColor=#000000;labelBorderColor=#000000;fontSize=14;fontColor=#000000;strokeColor=#000000;fontFamily=Times New Roman;entryX=0;entryY=0.25;entryDx=0;entryDy=0;exitX=0.984;exitY=0.363;exitDx=0;exitDy=0;exitPerimeter=0;" parent="1" source="25" target="68" edge="1">
                    <mxGeometry width="50" height="50" relative="1" as="geometry">
                        <mxPoint x="340" y="425.5" as="sourcePoint"/>
                        <mxPoint x="500" y="425.5" as="targetPoint"/>
                    </mxGeometry>
                </mxCell>
                <mxCell id="62" value="" style="endArrow=classic;html=1;rounded=0;labelBackgroundColor=#000000;labelBorderColor=#000000;fontSize=14;fontColor=#000000;strokeColor=#000000;fontFamily=Times New Roman;exitX=-0.001;exitY=0.788;exitDx=0;exitDy=0;exitPerimeter=0;entryX=0.988;entryY=0.627;entryDx=0;entryDy=0;entryPerimeter=0;" parent="1" source="68" target="25" edge="1">
                    <mxGeometry width="50" height="50" relative="1" as="geometry">
                        <mxPoint x="499" y="444.5" as="sourcePoint"/>
                        <mxPoint x="339" y="444.5" as="targetPoint"/>
                    </mxGeometry>
                </mxCell>
                <mxCell id="63" value="&lt;b style=&quot;font-size: 14px;&quot;&gt;customer&lt;/b&gt;" style="html=1;dashed=0;whitespace=wrap;shape=partialRectangle;right=0;left=0;labelBackgroundColor=none;fontSize=14;fontColor=#000000;strokeColor=#000000;fillColor=#FFFFFF;fontFamily=Times New Roman;" parent="1" vertex="1">
                    <mxGeometry x="520" y="-32" width="103" height="34" as="geometry"/>
                </mxCell>
                <mxCell id="64" value="&lt;b style=&quot;font-size: 14px;&quot;&gt;category&lt;/b&gt;" style="html=1;dashed=0;whitespace=wrap;shape=partialRectangle;right=0;left=0;labelBackgroundColor=none;fontSize=14;fontColor=#000000;strokeColor=#000000;fillColor=#FFFFFF;fontFamily=Times New Roman;" parent="1" vertex="1">
                    <mxGeometry x="520" y="58" width="104" height="34" as="geometry"/>
                </mxCell>
                <mxCell id="65" value="&lt;b style=&quot;font-size: 14px;&quot;&gt;product&lt;/b&gt;" style="html=1;dashed=0;whitespace=wrap;shape=partialRectangle;right=0;left=0;labelBackgroundColor=none;fontSize=14;fontColor=#000000;strokeColor=#000000;fillColor=#FFFFFF;fontFamily=Times New Roman;" parent="1" vertex="1">
                    <mxGeometry x="514" y="144.5" width="100" height="30" as="geometry"/>
                </mxCell>
                <mxCell id="67" value="&lt;b style=&quot;font-size: 14px;&quot;&gt;payment&lt;/b&gt;" style="html=1;dashed=0;whitespace=wrap;shape=partialRectangle;right=0;left=0;labelBackgroundColor=none;fontSize=14;fontColor=#000000;strokeColor=#000000;fillColor=#FFFFFF;fontFamily=Times New Roman;" parent="1" vertex="1">
                    <mxGeometry x="511" y="247" width="103" height="34" as="geometry"/>
                </mxCell>
                <mxCell id="68" value="&lt;b style=&quot;font-size: 14px;&quot;&gt;shipping&lt;/b&gt;" style="html=1;dashed=0;whitespace=wrap;shape=partialRectangle;right=0;left=0;labelBackgroundColor=none;fontSize=14;fontColor=#000000;strokeColor=#000000;fillColor=#FFFFFF;fontFamily=Times New Roman;" parent="1" vertex="1">
                    <mxGeometry x="512.5" y="346" width="103" height="34" as="geometry"/>
                </mxCell>
                <mxCell id="69" value="&lt;font style=&quot;font-size: 14px;&quot;&gt;Acknowledgement&lt;/font&gt;" style="text;html=1;align=right;verticalAlign=middle;resizable=0;points=[];autosize=1;strokeColor=none;fillColor=none;fontSize=14;fontColor=#000000;fontStyle=1;fontFamily=Times New Roman;" parent="1" vertex="1">
                    <mxGeometry x="358" y="-25" width="120" height="21" as="geometry"/>
                </mxCell>
                <mxCell id="70" value="&lt;font style=&quot;font-size: 14px;&quot;&gt;Acknowledgement&lt;/font&gt;" style="text;html=1;align=right;verticalAlign=middle;resizable=0;points=[];autosize=1;strokeColor=none;fillColor=none;fontSize=14;fontColor=#000000;fontStyle=1;fontFamily=Times New Roman;" parent="1" vertex="1">
                    <mxGeometry x="359" y="64" width="120" height="21" as="geometry"/>
                </mxCell>
                <mxCell id="71" value="&lt;font style=&quot;font-size: 14px;&quot;&gt;Acknowledgement&lt;/font&gt;" style="text;html=1;align=right;verticalAlign=middle;resizable=0;points=[];autosize=1;strokeColor=none;fillColor=none;fontSize=14;fontColor=#000000;fontStyle=1;fontFamily=Times New Roman;" parent="1" vertex="1">
                    <mxGeometry x="360" y="150" width="120" height="21" as="geometry"/>
                </mxCell>
                <mxCell id="74" value="&lt;font style=&quot;font-size: 14px;&quot;&gt;Acknowledgement&lt;/font&gt;" style="text;html=1;align=right;verticalAlign=middle;resizable=0;points=[];autosize=1;strokeColor=none;fillColor=none;fontSize=14;fontColor=#000000;fontStyle=1;fontFamily=Times New Roman;" parent="1" vertex="1">
                    <mxGeometry x="363" y="253" width="120" height="21" as="geometry"/>
                </mxCell>
                <mxCell id="75" value="&lt;font style=&quot;font-size: 14px;&quot;&gt;Acknowledgement&lt;/font&gt;" style="text;html=1;align=right;verticalAlign=middle;resizable=0;points=[];autosize=1;strokeColor=none;fillColor=none;fontSize=14;fontColor=#000000;fontStyle=1;fontFamily=Times New Roman;" parent="1" vertex="1">
                    <mxGeometry x="357" y="353.5" width="120" height="21" as="geometry"/>
                </mxCell>
                <mxCell id="76" value="&lt;b&gt;username,password&lt;/b&gt;" style="text;html=1;align=center;verticalAlign=middle;resizable=0;points=[];autosize=1;strokeColor=none;fillColor=none;fontSize=14;fontColor=#000000;fontFamily=Times New Roman;" parent="1" vertex="1">
                    <mxGeometry x="361" y="-42" width="129" height="21" as="geometry"/>
                </mxCell>
                <mxCell id="77" value="&lt;b&gt;category_id,status&lt;/b&gt;" style="text;html=1;align=center;verticalAlign=middle;resizable=0;points=[];autosize=1;strokeColor=none;fillColor=none;fontSize=14;fontColor=#000000;fontFamily=Times New Roman;" parent="1" vertex="1">
                    <mxGeometry x="360" y="47" width="118" height="21" as="geometry"/>
                </mxCell>
                <mxCell id="78" value="&lt;b&gt;product_id,supplier_id&lt;/b&gt;" style="text;html=1;align=center;verticalAlign=middle;resizable=0;points=[];autosize=1;strokeColor=none;fillColor=none;fontSize=14;fontColor=#000000;fontFamily=Times New Roman;" parent="1" vertex="1">
                    <mxGeometry x="348" y="132" width="147" height="21" as="geometry"/>
                </mxCell>
                <mxCell id="81" value="&lt;b&gt;payment_id,order_id&lt;/b&gt;" style="text;html=1;align=center;verticalAlign=middle;resizable=0;points=[];autosize=1;strokeColor=none;fillColor=none;fontSize=14;fontColor=#000000;fontFamily=Times New Roman;" parent="1" vertex="1">
                    <mxGeometry x="358" y="233" width="136" height="21" as="geometry"/>
                </mxCell>
                <mxCell id="82" value="&lt;b&gt;Order_detail_id,shipping_id&lt;/b&gt;" style="text;html=1;align=center;verticalAlign=middle;resizable=0;points=[];autosize=1;strokeColor=none;fillColor=none;fontSize=14;fontColor=#000000;fontFamily=Times New Roman;" parent="1" vertex="1">
                    <mxGeometry x="328" y="334" width="180" height="21" as="geometry"/>
                </mxCell>
                <mxCell id="83" value="&lt;b style=&quot;font-size: 14px;&quot;&gt;username,password&lt;/b&gt;" style="text;html=1;align=center;verticalAlign=middle;resizable=0;points=[];autosize=1;strokeColor=none;fillColor=none;fontSize=14;fontColor=#000000;fontFamily=Times New Roman;" parent="1" vertex="1">
                    <mxGeometry x="69" y="-43" width="129" height="21" as="geometry"/>
                </mxCell>
                <mxCell id="84" value="&lt;span style=&quot;color: rgb(0, 0, 0); font-size: 14px; font-style: normal; font-weight: 700; letter-spacing: normal; text-align: right; text-indent: 0px; text-transform: none; word-spacing: 0px; display: inline; float: none;&quot;&gt;Acknowledgement&lt;/span&gt;" style="text;whiteSpace=wrap;html=1;fontSize=14;fontColor=#000000;fontFamily=Times New Roman;" parent="1" vertex="1">
                    <mxGeometry x="76" y="-27" width="140" height="30" as="geometry"/>
                </mxCell>
                <mxCell id="87" value="&lt;b style=&quot;font-size: 14px&quot;&gt;category_id,status&lt;/b&gt;" style="text;html=1;align=center;verticalAlign=middle;resizable=0;points=[];autosize=1;strokeColor=none;fillColor=none;fontSize=14;fontColor=#000000;fontFamily=Times New Roman;" parent="1" vertex="1">
                    <mxGeometry x="67" y="48" width="118" height="21" as="geometry"/>
                </mxCell>
                <mxCell id="88" value="&lt;b style=&quot;font-size: 14px;&quot;&gt;Acknowledgement&lt;/b&gt;" style="text;html=1;align=center;verticalAlign=middle;resizable=0;points=[];autosize=1;strokeColor=none;fillColor=none;fontSize=14;fontColor=#000000;fontFamily=Times New Roman;" parent="1" vertex="1">
                    <mxGeometry x="65" y="65" width="120" height="21" as="geometry"/>
                </mxCell>
                <mxCell id="89" value="&lt;b style=&quot;font-size: 14px&quot;&gt;product_id,supplier_id&lt;/b&gt;" style="text;html=1;align=center;verticalAlign=middle;resizable=0;points=[];autosize=1;strokeColor=none;fillColor=none;fontSize=14;fontColor=#000000;fontFamily=Times New Roman;" parent="1" vertex="1">
                    <mxGeometry x="50" y="132" width="147" height="21" as="geometry"/>
                </mxCell>
                <mxCell id="90" value="&lt;b style=&quot;font-size: 14px;&quot;&gt;Acknowledgement&lt;/b&gt;" style="text;html=1;align=center;verticalAlign=middle;resizable=0;points=[];autosize=1;strokeColor=none;fillColor=none;fontSize=14;fontColor=#000000;fontFamily=Times New Roman;" parent="1" vertex="1">
                    <mxGeometry x="71" y="149" width="120" height="21" as="geometry"/>
                </mxCell>
                <mxCell id="94" value="&lt;b style=&quot;font-size: 14px&quot;&gt;payment_id,order_id&lt;/b&gt;" style="text;html=1;align=center;verticalAlign=middle;resizable=0;points=[];autosize=1;strokeColor=none;fillColor=none;fontSize=14;fontColor=#000000;fontFamily=Times New Roman;" parent="1" vertex="1">
                    <mxGeometry x="61.5" y="233" width="136" height="21" as="geometry"/>
                </mxCell>
                <mxCell id="95" value="&lt;b style=&quot;font-size: 14px;&quot;&gt;Acknowledgement&lt;/b&gt;" style="text;html=1;align=center;verticalAlign=middle;resizable=0;points=[];autosize=1;strokeColor=none;fillColor=none;fontSize=14;fontColor=#000000;fontFamily=Times New Roman;" parent="1" vertex="1">
                    <mxGeometry x="73.5" y="255" width="120" height="21" as="geometry"/>
                </mxCell>
                <mxCell id="96" value="&lt;b style=&quot;font-size: 14px&quot;&gt;Order_detail_id,shipping_id&lt;/b&gt;" style="text;html=1;align=center;verticalAlign=middle;resizable=0;points=[];autosize=1;strokeColor=none;fillColor=none;fontSize=14;fontColor=#000000;fontFamily=Times New Roman;" parent="1" vertex="1">
                    <mxGeometry x="17" y="338" width="180" height="21" as="geometry"/>
                </mxCell>
                <mxCell id="97" value="&lt;b style=&quot;font-size: 14px;&quot;&gt;Acknowledgement&lt;/b&gt;" style="text;html=1;align=center;verticalAlign=middle;resizable=0;points=[];autosize=1;strokeColor=none;fillColor=none;fontSize=14;fontColor=#000000;fontFamily=Times New Roman;" parent="1" vertex="1">
                    <mxGeometry x="66" y="359" width="120" height="21" as="geometry"/>
                </mxCell>
                <mxCell id="106" value="&lt;b style=&quot;font-size: 14px;&quot;&gt;suppliers&lt;/b&gt;" style="html=1;dashed=0;whitespace=wrap;shape=partialRectangle;right=0;left=0;labelBackgroundColor=none;fontSize=14;fontColor=#000000;strokeColor=#000000;fillColor=#FFFFFF;fontFamily=Times New Roman;" parent="1" vertex="1">
                    <mxGeometry x="520" y="454" width="103" height="34" as="geometry"/>
                </mxCell>
                <mxCell id="109" style="edgeStyle=elbowEdgeStyle;rounded=0;html=1;exitX=0.007;exitY=0.595;exitDx=0;exitDy=0;fontSize=14;strokeColor=#000000;fontFamily=Times New Roman;exitPerimeter=0;" parent="1" source="107" edge="1">
                    <mxGeometry relative="1" as="geometry">
                        <mxPoint x="-181" y="10" as="targetPoint"/>
                        <mxPoint x="207.00000000000364" y="634" as="sourcePoint"/>
                        <Array as="points">
                            <mxPoint x="-181" y="152"/>
                            <mxPoint x="-191" y="52"/>
                            <mxPoint x="-268" y="349"/>
                        </Array>
                    </mxGeometry>
                </mxCell>
                <mxCell id="107" value="Manage Suppliers&lt;br style=&quot;font-size: 14px&quot;&gt;6.0" style="shape=ellipse;html=1;dashed=0;whitespace=wrap;perimeter=ellipsePerimeter;labelBackgroundColor=#FFFFFF;fontSize=14;fontColor=#000000;strokeColor=#000000;fillColor=#FFFFFF;fontStyle=1;fontFamily=Times New Roman;" parent="1" vertex="1">
                    <mxGeometry x="210" y="432" width="145" height="90" as="geometry"/>
                </mxCell>
                <mxCell id="111" value="" style="endArrow=classic;html=1;rounded=0;labelBackgroundColor=#000000;labelBorderColor=#000000;fontSize=14;fontColor=#000000;strokeColor=#000000;exitX=0.974;exitY=0.337;exitDx=0;exitDy=0;exitPerimeter=0;fontFamily=Times New Roman;entryX=0.007;entryY=0.231;entryDx=0;entryDy=0;entryPerimeter=0;" parent="1" source="107" target="106" edge="1">
                    <mxGeometry width="50" height="50" relative="1" as="geometry">
                        <mxPoint x="349.69499999999994" y="610.24" as="sourcePoint"/>
                        <mxPoint x="521" y="610" as="targetPoint"/>
                        <Array as="points"/>
                    </mxGeometry>
                </mxCell>
                <mxCell id="112" value="" style="endArrow=classic;html=1;rounded=0;labelBackgroundColor=#000000;labelBorderColor=#000000;fontSize=14;fontColor=#000000;strokeColor=#000000;fontFamily=Times New Roman;exitX=0;exitY=0.75;exitDx=0;exitDy=0;entryX=1;entryY=0.535;entryDx=0;entryDy=0;entryPerimeter=0;" parent="1" source="106" target="107" edge="1">
                    <mxGeometry width="50" height="50" relative="1" as="geometry">
                        <mxPoint x="517" y="625" as="sourcePoint"/>
                        <mxPoint x="351" y="628" as="targetPoint"/>
                        <Array as="points"/>
                    </mxGeometry>
                </mxCell>
                <mxCell id="113" value="&lt;font style=&quot;font-size: 14px;&quot;&gt;Acknowledgement&lt;/font&gt;" style="text;html=1;align=right;verticalAlign=middle;resizable=0;points=[];autosize=1;strokeColor=none;fillColor=none;fontSize=14;fontColor=#000000;fontStyle=1;fontFamily=Times New Roman;" parent="1" vertex="1">
                    <mxGeometry x="371" y="460.00000000000006" width="120" height="21" as="geometry"/>
                </mxCell>
                <mxCell id="114" value="&lt;b&gt;supplier_id,email&lt;/b&gt;&lt;b style=&quot;font-size: 14px&quot;&gt;&lt;br style=&quot;font-size: 14px&quot;&gt;&lt;/b&gt;" style="text;html=1;align=center;verticalAlign=middle;resizable=0;points=[];autosize=1;strokeColor=none;fillColor=none;fontSize=14;fontColor=#000000;fontFamily=Times New Roman;" parent="1" vertex="1">
                    <mxGeometry x="374.5" y="442.00000000000006" width="114" height="21" as="geometry"/>
                </mxCell>
                <mxCell id="118" style="edgeStyle=elbowEdgeStyle;rounded=0;html=1;exitX=0.002;exitY=0.569;exitDx=0;exitDy=0;fontSize=14;strokeColor=#000000;fontFamily=Times New Roman;exitPerimeter=0;" parent="1" source="116" edge="1">
                    <mxGeometry relative="1" as="geometry">
                        <mxPoint x="205.99999999999727" y="749" as="sourcePoint"/>
                        <mxPoint x="-240" y="10" as="targetPoint"/>
                        <Array as="points">
                            <mxPoint x="-240" y="310"/>
                            <mxPoint x="-337" y="384"/>
                        </Array>
                    </mxGeometry>
                </mxCell>
                <mxCell id="116" value="Manage Orders&lt;br style=&quot;font-size: 14px&quot;&gt;7.0" style="shape=ellipse;html=1;dashed=0;whitespace=wrap;perimeter=ellipsePerimeter;labelBackgroundColor=#FFFFFF;fontSize=14;fontColor=#000000;strokeColor=#000000;fillColor=#FFFFFF;fontStyle=1;fontFamily=Times New Roman;" parent="1" vertex="1">
                    <mxGeometry x="208" y="551" width="156" height="84" as="geometry"/>
                </mxCell>
                <mxCell id="121" value="&lt;b style=&quot;font-size: 14px&quot;&gt;supplier_id,email&lt;/b&gt;" style="text;html=1;align=center;verticalAlign=middle;resizable=0;points=[];autosize=1;strokeColor=none;fillColor=none;fontSize=14;fontColor=#000000;fontFamily=Times New Roman;" parent="1" vertex="1">
                    <mxGeometry x="80.5" y="444.00000000000006" width="114" height="21" as="geometry"/>
                </mxCell>
                <mxCell id="122" value="&lt;b style=&quot;font-size: 14px;&quot;&gt;Acknowledgement&lt;/b&gt;" style="text;html=1;align=center;verticalAlign=middle;resizable=0;points=[];autosize=1;strokeColor=none;fillColor=none;fontSize=14;fontColor=#000000;fontFamily=Times New Roman;" parent="1" vertex="1">
                    <mxGeometry x="73.5" y="466.5" width="120" height="21" as="geometry"/>
                </mxCell>
                <mxCell id="124" value="&lt;b style=&quot;font-size: 14px&quot;&gt;order_id,customer_id&lt;/b&gt;" style="text;html=1;align=center;verticalAlign=middle;resizable=0;points=[];autosize=1;strokeColor=none;fillColor=none;fontSize=14;fontColor=#000000;fontFamily=Times New Roman;" parent="1" vertex="1">
                    <mxGeometry x="60.5" y="560" width="139" height="21" as="geometry"/>
                </mxCell>
                <mxCell id="125" value="&lt;b style=&quot;font-size: 14px;&quot;&gt;Acknowledgement&lt;/b&gt;" style="text;html=1;align=center;verticalAlign=middle;resizable=0;points=[];autosize=1;strokeColor=none;fillColor=none;fontSize=14;fontColor=#000000;fontFamily=Times New Roman;" parent="1" vertex="1">
                    <mxGeometry x="71" y="579.73" width="120" height="21" as="geometry"/>
                </mxCell>
                <mxCell id="126" value="" style="endArrow=classic;html=1;rounded=0;labelBackgroundColor=#000000;labelBorderColor=#000000;fontSize=14;fontColor=#000000;strokeColor=#000000;exitX=0.978;exitY=0.343;exitDx=0;exitDy=0;exitPerimeter=0;fontFamily=Times New Roman;entryX=0;entryY=0.25;entryDx=0;entryDy=0;" parent="1" source="116" target="131" edge="1">
                    <mxGeometry width="50" height="50" relative="1" as="geometry">
                        <mxPoint x="356.5039999999999" y="729.6680000000001" as="sourcePoint"/>
                        <mxPoint x="507" y="730" as="targetPoint"/>
                    </mxGeometry>
                </mxCell>
                <mxCell id="127" value="" style="endArrow=classic;html=1;rounded=0;labelBackgroundColor=#000000;labelBorderColor=#000000;fontSize=14;fontColor=#000000;strokeColor=#000000;entryX=0.991;entryY=0.587;entryDx=0;entryDy=0;entryPerimeter=0;fontFamily=Times New Roman;exitX=-0.001;exitY=0.811;exitDx=0;exitDy=0;exitPerimeter=0;" parent="1" source="131" target="116" edge="1">
                    <mxGeometry width="50" height="50" relative="1" as="geometry">
                        <mxPoint x="516" y="600" as="sourcePoint"/>
                        <mxPoint x="358.5319999999999" y="749.3679999999999" as="targetPoint"/>
                    </mxGeometry>
                </mxCell>
                <mxCell id="129" value="&lt;b&gt;order_id,customer_id&lt;/b&gt;&lt;b style=&quot;font-size: 14px&quot;&gt;&lt;br style=&quot;font-size: 14px&quot;&gt;&lt;/b&gt;" style="text;html=1;align=center;verticalAlign=middle;resizable=0;points=[];autosize=1;strokeColor=none;fillColor=none;fontSize=14;fontColor=#000000;fontFamily=Times New Roman;" parent="1" vertex="1">
                    <mxGeometry x="365" y="560" width="139" height="21" as="geometry"/>
                </mxCell>
                <mxCell id="131" value="&lt;b style=&quot;font-size: 14px&quot;&gt;order&lt;/b&gt;" style="html=1;dashed=0;whitespace=wrap;shape=partialRectangle;right=0;left=0;labelBackgroundColor=none;fontSize=14;fontColor=#000000;strokeColor=#000000;fillColor=#FFFFFF;fontFamily=Times New Roman;" parent="1" vertex="1">
                    <mxGeometry x="520" y="573" width="102" height="34.46" as="geometry"/>
                </mxCell>
                <mxCell id="132" value="&lt;font style=&quot;font-size: 14px;&quot;&gt;Acknowledgement&lt;/font&gt;" style="text;html=1;align=right;verticalAlign=middle;resizable=0;points=[];autosize=1;strokeColor=none;fillColor=none;fontSize=14;fontColor=#000000;fontStyle=1;fontFamily=Times New Roman;" parent="1" vertex="1">
                    <mxGeometry x="374" y="581.0000000000001" width="120" height="21" as="geometry"/>
                </mxCell>
                <mxCell id="135" value="" style="endArrow=classic;html=1;rounded=0;labelBackgroundColor=#000000;labelBorderColor=#000000;fontSize=14;fontColor=#000000;strokeColor=#000000;fontFamily=Times New Roman;entryX=-0.002;entryY=0.276;entryDx=0;entryDy=0;entryPerimeter=0;" parent="1" edge="1">
                    <mxGeometry width="50" height="50" relative="1" as="geometry">
                        <mxPoint x="335.1" y="152.67000000000002" as="sourcePoint"/>
                        <mxPoint x="514.8920000000002" y="152.55400000000003" as="targetPoint"/>
                    </mxGeometry>
                </mxCell>
                <mxCell id="136" value="" style="endArrow=classic;html=1;rounded=0;labelBackgroundColor=#000000;labelBorderColor=#000000;fontSize=14;fontColor=#000000;strokeColor=#000000;fontFamily=Times New Roman;exitX=-0.001;exitY=0.88;exitDx=0;exitDy=0;exitPerimeter=0;" parent="1" source="65" edge="1">
                    <mxGeometry width="50" height="50" relative="1" as="geometry">
                        <mxPoint x="522.52" y="170.99799999999993" as="sourcePoint"/>
                        <mxPoint x="340" y="171.26999999999998" as="targetPoint"/>
                    </mxGeometry>
                </mxCell>
                <mxCell id="140" style="edgeStyle=none;rounded=0;html=1;exitX=0;exitY=0.5;exitDx=0;exitDy=0;strokeColor=#000000;entryX=0.016;entryY=1.002;entryDx=0;entryDy=0;entryPerimeter=0;" parent="1" target="26" edge="1">
                    <mxGeometry relative="1" as="geometry">
                        <mxPoint x="-314" y="25" as="targetPoint"/>
                        <mxPoint x="220" y="721" as="sourcePoint"/>
                        <Array as="points">
                            <mxPoint x="-314" y="721"/>
                        </Array>
                    </mxGeometry>
                </mxCell>
                <mxCell id="138" value="Manage Delivery Boy&lt;br style=&quot;font-size: 14px&quot;&gt;8.0" style="shape=ellipse;html=1;dashed=0;whitespace=wrap;perimeter=ellipsePerimeter;labelBackgroundColor=#FFFFFF;fontSize=14;fontColor=#000000;strokeColor=#000000;fillColor=#FFFFFF;fontStyle=1;fontFamily=Times New Roman;" parent="1" vertex="1">
                    <mxGeometry x="213" y="664" width="156" height="84" as="geometry"/>
                </mxCell>
                <mxCell id="141" value="&lt;b style=&quot;font-size: 14px&quot;&gt;db_id,email&lt;/b&gt;" style="text;html=1;align=center;verticalAlign=middle;resizable=0;points=[];autosize=1;strokeColor=none;fillColor=none;fontSize=14;fontColor=#000000;fontFamily=Times New Roman;" parent="1" vertex="1">
                    <mxGeometry x="91.5" y="677" width="80" height="21" as="geometry"/>
                </mxCell>
                <mxCell id="142" value="&lt;b style=&quot;font-size: 14px;&quot;&gt;Acknowledgement&lt;/b&gt;" style="text;html=1;align=center;verticalAlign=middle;resizable=0;points=[];autosize=1;strokeColor=none;fillColor=none;fontSize=14;fontColor=#000000;fontFamily=Times New Roman;" parent="1" vertex="1">
                    <mxGeometry x="69.5" y="700" width="120" height="21" as="geometry"/>
                </mxCell>
                <mxCell id="145" value="" style="endArrow=classic;html=1;rounded=0;labelBackgroundColor=#000000;labelBorderColor=#000000;fontSize=14;fontColor=#000000;strokeColor=#000000;exitX=0.978;exitY=0.343;exitDx=0;exitDy=0;exitPerimeter=0;fontFamily=Times New Roman;" parent="1" edge="1">
                    <mxGeometry width="50" height="50" relative="1" as="geometry">
                        <mxPoint x="368.998" y="698.002" as="sourcePoint"/>
                        <mxPoint x="528" y="698" as="targetPoint"/>
                    </mxGeometry>
                </mxCell>
                <mxCell id="146" value="" style="endArrow=classic;html=1;rounded=0;labelBackgroundColor=#000000;labelBorderColor=#000000;fontSize=14;fontColor=#000000;strokeColor=#000000;entryX=0.991;entryY=0.587;entryDx=0;entryDy=0;entryPerimeter=0;fontFamily=Times New Roman;exitX=-0.001;exitY=0.811;exitDx=0;exitDy=0;exitPerimeter=0;" parent="1" edge="1">
                    <mxGeometry width="50" height="50" relative="1" as="geometry">
                        <mxPoint x="526.2980000000001" y="714.9070600000002" as="sourcePoint"/>
                        <mxPoint x="368.9960000000002" y="714.268" as="targetPoint"/>
                    </mxGeometry>
                </mxCell>
                <mxCell id="147" value="&lt;b style=&quot;font-size: 14px&quot;&gt;delivery_boy&lt;/b&gt;" style="html=1;dashed=0;whitespace=wrap;shape=partialRectangle;right=0;left=0;labelBackgroundColor=none;fontSize=14;fontColor=#000000;strokeColor=#000000;fillColor=#FFFFFF;fontFamily=Times New Roman;" parent="1" vertex="1">
                    <mxGeometry x="530" y="686.54" width="102" height="34.46" as="geometry"/>
                </mxCell>
                <mxCell id="149" value="&lt;b&gt;db_id,email&lt;/b&gt;" style="text;html=1;align=center;verticalAlign=middle;resizable=0;points=[];autosize=1;strokeColor=none;fillColor=none;fontSize=14;fontColor=#000000;fontFamily=Times New Roman;" parent="1" vertex="1">
                    <mxGeometry x="402.5" y="677" width="80" height="21" as="geometry"/>
                </mxCell>
                <mxCell id="150" value="&lt;b style=&quot;font-size: 14px;&quot;&gt;Acknowledgement&lt;/b&gt;" style="text;html=1;align=center;verticalAlign=middle;resizable=0;points=[];autosize=1;strokeColor=none;fillColor=none;fontSize=14;fontColor=#000000;fontFamily=Times New Roman;" parent="1" vertex="1">
                    <mxGeometry x="387" y="695.27" width="120" height="21" as="geometry"/>
                </mxCell>
            </root>
        </mxGraphModel>
    </diagram>
</mxfile>